<svg width="698" height="699" viewBox="0 0 698 699" fill="none" xmlns="http://www.w3.org/2000/svg">
<path d="M76.5493 387.006L14.2722 392.949L13.6224 386.112L75.8994 380.168L76.5493 387.006Z" fill="white"/>
<path d="M83.2029 463.185L39.0906 478.356L27.016 443.102L34.8611 440.404L43.6305 466.008L53.469 462.625L45.7131 439.98L53.4939 437.304L61.2498 459.949L71.9885 456.256L63.0868 430.266L70.9962 427.546L83.2029 463.185Z" fill="white"/>
<path d="M102.001 497.001C104.156 500.677 105.427 504.19 105.813 507.54C106.177 510.85 105.599 513.899 104.08 516.686C102.522 519.497 99.985 521.936 96.4687 524.006L71.4441 538.732L66.2866 529.932L91.0767 515.344C93.968 513.642 95.748 511.569 96.4168 509.124C97.0466 506.702 96.5248 504.063 94.8515 501.208C93.1782 498.353 91.1326 496.611 88.7149 495.983C86.2352 495.338 83.5498 495.866 80.6586 497.568L55.8684 512.156L50.7109 503.356L75.7355 488.63C79.2518 486.56 82.6142 485.529 85.8227 485.534C88.9921 485.563 91.9423 486.562 94.6731 488.532C97.381 490.462 99.8238 493.285 102.001 497.001Z" fill="white"/>
<path d="M136.211 531.48L135.289 542.615C135.535 542.82 135.78 543.057 136.024 543.325C136.301 543.564 136.546 543.8 136.759 544.035C140.016 547.63 142.177 551.333 143.244 555.143C144.246 558.95 144.062 562.764 142.691 566.585C141.29 570.372 138.611 574.066 134.654 577.665C130.597 581.357 126.621 583.686 122.727 584.655C118.799 585.654 114.996 585.406 111.317 583.911C107.605 582.447 104.09 579.884 100.772 576.222C97.3933 572.493 95.1708 568.724 94.1044 564.913C92.9741 561.1 93.0942 557.283 94.465 553.462C95.8022 549.672 98.4995 545.931 102.557 542.239C106.749 538.426 110.886 536.072 114.969 535.177C119.052 534.282 123.009 534.666 126.84 536.328L127.353 521.704L136.211 531.48ZM130.348 549.316C128.857 547.67 127.313 546.439 125.718 545.623C124.122 544.807 122.474 544.406 120.774 544.42C119.074 544.434 117.356 544.833 115.619 545.617C113.848 546.431 112.091 547.631 110.347 549.217L108.788 550.636C107.011 552.253 105.633 553.905 104.653 555.592C103.674 557.28 103.113 558.955 102.968 560.619C102.79 562.313 103.029 563.995 103.686 565.665C104.343 567.335 105.417 568.993 106.909 570.64C108.37 572.252 109.898 573.466 111.494 574.282C113.089 575.098 114.737 575.499 116.437 575.485C118.103 575.501 119.822 575.102 121.592 574.288C123.333 573.44 125.091 572.208 126.868 570.591L128.428 569.173C130.172 567.586 131.548 565.966 132.558 564.312C133.503 562.655 134.065 560.98 134.243 559.286C134.421 557.592 134.182 555.91 133.525 554.24C132.868 552.57 131.809 550.928 130.348 549.316Z" fill="white"/>
<path d="M171.749 577.722L142.27 613.875L134.43 607.457L163.909 571.304L171.749 577.722Z" fill="white"/>
<path d="M195.931 596.185L175.162 628.184L187.696 636.352L183.068 643.482L149.399 621.54L154.026 614.41L166.617 622.615L187.385 590.616L195.931 596.185Z" fill="white"/>
<path d="M253.724 623.366L235.133 666.149L226.595 662.424L219.419 631.843C219.297 631.443 219.166 630.891 219.027 630.188C218.869 629.526 218.733 628.872 218.617 628.229C218.502 627.585 218.445 627.09 218.447 626.744L218.135 626.608C217.828 627.315 217.53 628.001 217.241 628.667C216.934 629.373 216.663 629.997 216.428 630.538L206.401 653.613L197.613 649.779L216.203 606.996L224.742 610.721L232.047 642.026C232.21 642.79 232.366 643.624 232.516 644.531C232.666 645.437 232.763 646.122 232.809 646.587L233.12 646.723C233.391 646.1 233.662 645.476 233.933 644.852C234.186 644.27 234.43 643.709 234.665 643.168L244.936 619.531L253.724 623.366Z" fill="white"/>
<path d="M308.911 636.691L299.195 682.316L262.754 674.523L264.482 666.409L290.948 672.069L293.115 661.893L269.708 656.888L271.422 648.84L294.829 653.846L297.195 642.739L270.33 636.994L272.072 628.813L308.911 636.691Z" fill="white"/>
<path d="M367.924 638.954L367.484 685.6L357.353 685.504L357.527 667.009L336.856 666.813L336.682 685.308L326.55 685.212L326.989 638.567L337.121 638.662L336.936 658.246L357.608 658.441L357.792 638.858L367.924 638.954Z" fill="white"/>
<path d="M394.052 635.204L400.003 672.885L414.778 670.542L416.104 678.938L376.412 685.232L375.086 676.836L389.929 674.482L383.978 636.801L394.052 635.204Z" fill="white"/>
<path d="M441.451 622.616C445.492 621.262 449.189 620.739 452.542 621.049C455.853 621.373 458.712 622.566 461.121 624.627C463.544 626.731 465.402 629.718 466.695 633.588L475.892 661.129L466.221 664.372L457.11 637.089C456.047 633.907 454.391 631.737 452.14 630.579C449.904 629.464 447.217 629.433 444.079 630.485C440.942 631.537 438.815 633.183 437.698 635.422C436.553 637.718 436.512 640.457 437.575 643.639L446.686 670.922L437.015 674.165L427.818 646.624C426.526 642.754 426.215 639.248 426.887 636.106C427.572 633.008 429.161 630.323 431.653 628.053C434.102 625.798 437.368 623.985 441.451 622.616Z" fill="white"/>
<path d="M513.534 588.279L521.128 637.712L510.278 643.943L471.549 612.392L481.043 606.939L488.49 613.248L506.121 603.122L504.453 593.494L513.534 588.279ZM507.637 611.662L495.078 618.875L504.38 626.785C504.785 627.127 505.274 627.526 505.848 627.981C506.405 628.498 507.015 629.062 507.678 629.674C508.342 630.286 508.994 630.879 509.635 631.452C510.259 632.087 510.838 632.643 511.373 633.12L511.726 632.917C511.495 632.056 511.244 631.024 510.974 629.82C510.725 628.656 510.489 627.511 510.263 626.386C510.06 625.301 509.887 624.406 509.746 623.703L507.637 611.662Z" fill="white"/>
<path d="M544.868 543.414L587.613 589.093L582.608 593.796L539.863 548.116L544.868 543.414Z" fill="white"/>
<path d="M600.907 491.491L639.853 517.166L619.401 548.316L612.474 543.75L627.328 521.127L618.642 515.4L605.505 535.409L598.635 530.88L611.773 510.871L602.292 504.621L587.214 527.585L580.23 522.982L600.907 491.491Z" fill="white"/>
<path d="M617.383 459.914L659.591 479.777L655.291 488.951L620.897 472.765L610.912 494.07L603.098 490.392L617.383 459.914Z" fill="white"/>
<path d="M634.395 407.639L673.685 438.567L670.005 450.526L620.156 453.914L623.376 443.45L633.127 442.975L639.106 423.542L631.315 417.648L634.395 407.639ZM646.043 428.746L641.783 442.589L653.983 442.017C654.513 441.991 655.143 441.948 655.872 441.889C656.632 441.886 657.463 441.882 658.366 441.877C659.269 441.871 660.15 441.858 661.01 441.839C661.9 441.877 662.703 441.888 663.419 441.872L663.539 441.482C662.783 441.011 661.895 440.428 660.875 439.734C659.899 439.053 658.945 438.378 658.012 437.71C657.122 437.056 656.386 436.52 655.803 436.103L646.043 428.746Z" fill="white"/>
<path d="M634.453 381.569C634.971 376.746 636.248 372.712 638.284 369.466C640.364 366.225 643.282 363.895 647.036 362.476C650.786 361.102 655.41 360.712 660.909 361.305C669.022 362.18 674.826 364.813 678.321 369.202C681.856 373.641 683.234 379.49 682.455 386.746C682.028 390.713 680.97 394.201 679.279 397.21C677.588 400.22 675.293 402.48 672.395 403.991C669.492 405.547 665.99 406.104 661.889 405.662L662.978 395.52C665.141 395.754 667.015 395.5 668.6 394.759C670.179 394.063 671.439 392.945 672.379 391.405C673.36 389.915 673.964 388.11 674.192 385.992C674.502 383.107 674.195 380.658 673.272 378.643C672.343 376.673 670.823 375.119 668.712 373.979C666.64 372.889 664.027 372.174 660.872 371.834L658.776 371.608C655.531 371.258 652.756 371.415 650.45 372.078C648.19 372.746 646.4 373.921 645.079 375.602C643.799 377.333 643.004 379.642 642.694 382.526C642.452 384.78 642.624 386.782 643.211 388.532C643.798 390.283 644.787 391.689 646.178 392.751C647.568 393.813 649.345 394.46 651.509 394.694L650.463 404.43C646.361 403.987 643.055 402.719 640.545 400.624C638.029 398.575 636.265 395.899 635.252 392.598C634.283 389.302 634.017 385.626 634.453 381.569Z" fill="white"/>
<path d="M635.06 324.619C634.616 319.697 635.114 315.373 636.553 311.647C637.992 307.921 640.409 304.948 643.805 302.729C647.201 300.509 651.585 299.156 656.958 298.67C662.421 298.175 666.998 298.716 670.691 300.294C674.429 301.867 677.316 304.36 679.354 307.771C681.436 311.178 682.699 315.343 683.143 320.264C683.595 325.276 683.1 329.622 681.657 333.303C680.263 337.026 677.868 339.996 674.472 342.216C671.121 344.431 666.715 345.786 661.252 346.281C655.879 346.767 651.324 346.224 647.586 344.65C643.848 343.077 640.938 340.587 638.856 337.179C636.777 333.817 635.512 329.63 635.06 324.619ZM643.322 323.87C643.522 326.083 644.013 327.996 644.796 329.609C645.578 331.222 646.653 332.536 648.019 333.55C649.385 334.564 650.997 335.283 652.856 335.707C654.76 336.126 656.886 336.229 659.234 336.017L661.333 335.827C663.726 335.61 665.821 335.124 667.62 334.37C669.418 333.615 670.875 332.618 671.993 331.379C673.155 330.136 673.977 328.65 674.458 326.923C674.94 325.195 675.081 323.225 674.881 321.012C674.686 318.845 674.196 316.955 673.414 315.342C672.631 313.728 671.557 312.415 670.191 311.4C668.87 310.382 667.257 309.663 665.353 309.244C663.453 308.87 661.307 308.791 658.914 309.008L656.815 309.198C654.467 309.41 652.392 309.871 650.59 310.581C648.837 311.331 647.379 312.328 646.217 313.571C645.054 314.815 644.232 316.3 643.751 318.028C643.27 319.756 643.127 321.703 643.322 323.87Z" fill="white"/>
<path d="M624.574 263.499L669.928 252.588L672.289 262.441L635.331 271.332L640.813 294.213L632.417 296.233L624.574 263.499Z" fill="white"/>
<path d="M595.652 228.378L652.814 202.957L655.595 209.237L598.433 234.658L595.652 228.378Z" fill="white"/>
<path d="M583.07 181.697L621.551 155.33L627.262 163.699L595.905 185.185L609.167 204.619L602.043 209.5L583.07 181.697Z" fill="white"/>
<path d="M560.437 155.204C557.09 151.569 554.852 147.834 553.724 143.999C552.596 140.165 552.702 136.331 554.042 132.499C555.381 128.667 558.032 124.92 561.993 121.258C566.02 117.534 569.977 115.171 573.863 114.171C577.782 113.141 581.587 113.358 585.278 114.822C589.002 116.257 592.538 118.791 595.885 122.426C599.294 126.127 601.547 129.879 602.644 133.68C603.806 137.484 603.716 141.302 602.377 145.134C601.07 148.935 598.403 152.698 594.376 156.422C590.415 160.084 586.475 162.431 582.556 163.462C578.636 164.493 574.815 164.291 571.09 162.857C567.397 161.456 563.846 158.905 560.437 155.204ZM566.528 149.571C568.033 151.205 569.587 152.424 571.189 153.227C572.791 154.03 574.442 154.417 576.142 154.389C577.841 154.361 579.557 153.948 581.287 153.151C583.051 152.322 584.798 151.108 586.529 149.507L588.077 148.076C589.841 146.445 591.206 144.782 592.171 143.086C593.137 141.391 593.685 139.711 593.816 138.046C593.98 136.351 593.727 134.671 593.057 133.006C592.387 131.341 591.299 129.692 589.794 128.058C588.32 126.457 586.782 125.256 585.18 124.453C583.577 123.65 581.927 123.262 580.227 123.29C578.56 123.288 576.845 123.701 575.081 124.529C573.348 125.391 571.599 126.637 569.835 128.268L568.288 129.699C566.557 131.3 565.193 132.931 564.197 134.593C563.265 136.258 562.717 137.938 562.553 139.633C562.388 141.329 562.641 143.009 563.312 144.673C563.982 146.338 565.054 147.971 566.528 149.571Z" fill="white"/>
<path d="M517.224 116.691C513.216 113.801 510.276 110.59 508.402 107.06C506.529 103.529 505.865 99.7521 506.41 95.7297C506.955 91.7072 508.801 87.5051 511.948 83.1236C515.148 78.6684 518.551 75.5616 522.159 73.8034C525.792 72.0084 529.564 71.4587 533.473 72.1544C537.41 72.8133 541.382 74.5879 545.389 77.4783C549.471 80.4217 552.43 83.6456 554.266 87.1499C556.166 90.6439 556.843 94.4022 556.298 98.4247C555.78 102.41 553.921 106.631 550.721 111.086C547.573 115.468 544.183 118.556 540.55 120.351C536.916 122.146 533.131 122.714 529.195 122.055C525.296 121.423 521.305 119.635 517.224 116.691ZM522.064 109.953C523.865 111.253 525.632 112.135 527.362 112.601C529.093 113.067 530.788 113.115 532.448 112.747C534.108 112.379 535.705 111.631 537.241 110.503C538.803 109.338 540.272 107.799 541.647 105.884L542.877 104.172C544.279 102.22 545.283 100.317 545.889 98.4632C546.495 96.6088 546.696 94.8531 546.491 93.196C546.312 91.5022 545.728 89.9069 544.737 88.4103C543.747 86.9137 542.351 85.5157 540.55 84.2163C538.785 82.9435 537.037 82.0743 535.306 81.6086C533.576 81.143 531.88 81.0941 530.221 81.4622C528.587 81.7934 526.99 82.5414 525.427 83.7063C523.902 84.8977 522.438 86.4691 521.036 88.4206L519.807 90.1327C518.432 92.0474 517.422 93.9186 516.779 95.7464C516.199 97.5639 515.999 99.3196 516.178 101.014C516.356 102.707 516.941 104.303 517.931 105.799C518.921 107.296 520.299 108.681 522.064 109.953Z" fill="white"/>
<path d="M474.168 89.9854C469.754 87.9755 466.325 85.4929 463.882 82.5376C461.458 79.5411 460.16 76.0363 459.989 72.0232C459.859 68.0289 460.935 63.5133 463.22 58.4763C466.589 51.0446 470.904 46.3593 476.164 44.4204C481.483 42.459 487.464 42.9904 494.107 46.0148C497.737 47.6678 500.716 49.7711 503.042 52.3247C505.369 54.8782 506.796 57.7693 507.323 60.9979C507.891 64.2453 507.323 67.7475 505.62 71.5047L496.336 67.2781C497.235 65.2963 497.581 63.4364 497.373 61.6982C497.207 59.9788 496.541 58.4301 495.374 57.0519C494.267 55.6513 492.744 54.5095 490.804 53.6267C488.164 52.4244 485.743 51.9449 483.542 52.1882C481.383 52.4502 479.432 53.4048 477.689 55.0522C476.007 56.6771 474.51 58.9346 473.199 61.8246L472.329 63.7445C470.981 66.7172 470.261 69.4029 470.169 71.8016C470.095 74.1591 470.65 76.2296 471.832 78.0132C473.074 79.7742 475.016 81.2559 477.656 82.4581C479.719 83.3973 481.673 83.8635 483.518 83.8567C485.363 83.8498 487.007 83.353 488.449 82.3662C489.892 81.3795 491.063 79.8952 491.962 77.9134L500.874 81.9709C499.17 85.728 496.931 88.4695 494.158 90.1953C491.425 91.94 488.334 92.7741 484.885 92.6978C481.454 92.5802 477.881 91.6761 474.168 89.9854Z" fill="white"/>
<path d="M420.348 69.0443L433.453 24.2751L443.174 27.1323L432.495 63.6133L455.068 70.2482L452.642 78.5363L420.348 69.0443Z" fill="white"/>
<path d="M366.426 60.7864L390.931 17.2334L403.311 19.0491L414.33 67.8124L403.498 66.2237L401.528 56.6565L381.411 53.706L376.788 62.3061L366.426 60.7864ZM385.484 46.056L399.814 48.1579L397.371 36.1846C397.264 35.6649 397.125 35.0489 396.954 34.3365C396.835 33.5859 396.703 32.7647 396.558 31.873C396.413 30.9812 396.266 30.1119 396.114 29.265C396.015 28.3798 395.902 27.5843 395.776 26.8786L395.372 26.8194C395.023 27.6388 394.584 28.6053 394.055 29.7189C393.532 30.7877 393.013 31.8341 392.497 32.8581C391.988 33.8372 391.571 34.6467 391.249 35.2866L385.484 46.056Z" fill="white"/>
<path d="M314.209 64.2317C311.508 64.5536 308.91 64.5894 306.415 64.3389C303.92 64.0885 301.658 63.4907 299.628 62.5457C297.638 61.5502 295.996 60.2165 294.702 58.5446C293.448 56.8223 292.666 54.6557 292.356 52.0447C292.329 51.8196 292.302 51.5945 292.275 51.3694C292.243 51.0993 292.242 50.8941 292.271 50.7537L302.264 49.5624C302.235 49.7028 302.234 49.8856 302.261 50.1107C302.287 50.3357 302.311 50.5383 302.333 50.7184C302.504 52.1589 303.031 53.3288 303.914 54.2279C304.841 55.1217 306.1 55.725 307.689 56.0377C309.279 56.3505 311.086 56.3861 313.112 56.1447C314.417 55.989 315.557 55.7847 316.531 55.5316C317.545 55.2281 318.419 54.8957 319.152 54.5344C319.925 54.1227 320.535 53.6847 320.982 53.2205C321.474 52.751 321.8 52.2327 321.961 51.6657C322.167 51.0933 322.23 50.4694 322.15 49.7942C322.006 48.5787 321.483 47.6366 320.582 46.9679C319.726 46.2938 318.568 45.7699 317.108 45.396C315.694 45.0168 314.105 44.704 312.341 44.4578C310.577 44.2115 308.768 43.9706 306.913 43.7351C305.054 43.4545 303.229 43.0786 301.438 42.6072C299.642 42.0909 298.01 41.418 296.542 40.5886C295.074 39.7592 293.844 38.6275 292.852 37.1935C291.86 35.7595 291.236 33.9621 290.979 31.8013C290.707 29.5054 290.944 27.4683 291.692 25.69C292.484 23.9063 293.694 22.3696 295.322 21.0799C296.949 19.7902 298.881 18.761 301.118 17.9921C303.35 17.1782 305.816 16.6103 308.517 16.2884C311.038 15.9879 313.456 15.9736 315.77 16.2455C318.08 16.4724 320.157 17.0466 322.001 17.9681C323.845 18.8896 325.341 20.1493 326.49 21.7473C327.683 23.3399 328.419 25.3067 328.697 27.6476L328.793 28.4579L319.002 29.625L318.938 29.0848C318.794 27.8693 318.311 26.8768 317.489 26.1074C316.667 25.3379 315.574 24.7834 314.21 24.4438C312.846 24.1042 311.286 24.0391 309.53 24.2483C307.64 24.4737 306.041 24.847 304.733 25.3681C303.47 25.8838 302.522 26.5448 301.887 27.3509C301.292 28.1066 301.05 28.9572 301.163 29.9026C301.291 30.983 301.78 31.8377 302.631 32.4668C303.522 33.0454 304.674 33.5244 306.089 33.9036C307.543 34.2325 309.149 34.4975 310.908 34.6987C312.667 34.9 314.476 35.1409 316.335 35.4214C318.194 35.702 320.019 36.0779 321.81 36.5493C323.601 37.0206 325.233 37.6935 326.706 38.5679C328.174 39.3973 329.402 40.5065 330.388 41.8955C331.375 43.2845 331.991 45.0144 332.237 47.0852C332.659 50.6415 332.143 53.6021 330.689 55.9668C329.235 58.3315 327.082 60.1862 324.228 61.5307C321.375 62.8752 318.035 63.7755 314.209 64.2317Z" fill="white"/>
<path d="M239.763 81.9821L225.431 37.5905L234.293 34.7176L259.876 52.8728C260.233 53.0909 260.695 53.4175 261.265 53.8525C261.82 54.2443 262.353 54.6432 262.866 55.049C263.378 55.4549 263.747 55.7878 263.974 56.0479L264.298 55.943C264.061 55.2096 263.831 54.4978 263.608 53.8076C263.371 53.0742 263.162 52.4271 262.981 51.8663L255.251 27.9233L264.372 24.9665L278.704 69.358L269.842 72.231L243.682 53.6192C243.056 53.155 242.387 52.6331 241.676 52.0535C240.965 51.4739 240.439 51.0249 240.098 50.7066L239.775 50.8114C239.984 51.4585 240.193 52.1056 240.401 52.7528C240.596 53.3567 240.784 53.9391 240.966 54.4999L248.884 79.0253L239.763 81.9821Z" fill="white"/>
<path d="M185.466 110.977L178.225 61.4916L189.119 55.338L227.621 87.1652L218.089 92.5496L210.687 86.1875L192.984 96.187L194.584 105.827L185.466 110.977ZM191.529 87.6371L204.14 80.5137L194.894 72.5378C194.492 72.1924 194.005 71.7902 193.435 71.3313C192.882 70.8106 192.276 70.2418 191.617 69.6249C190.958 69.008 190.31 68.4108 189.673 67.8334C189.053 67.1942 188.478 66.634 187.947 66.1528L187.592 66.3535C187.817 67.2156 188.06 68.2495 188.322 69.4552C188.562 70.6213 188.791 71.7677 189.009 72.8943C189.204 73.9814 189.37 74.877 189.506 75.5812L191.529 87.6371Z" fill="white"/>
<path d="M162.421 131.119C160.349 132.882 158.205 134.348 155.989 135.519C153.772 136.69 151.558 137.443 149.346 137.777C147.139 138.047 145.035 137.843 143.034 137.164C141.039 136.422 139.191 135.047 137.492 133.041C137.345 132.868 137.199 132.695 137.052 132.522C136.876 132.314 136.762 132.144 136.708 132.011L144.374 125.491C144.428 125.624 144.528 125.777 144.674 125.95C144.821 126.123 144.953 126.278 145.07 126.417C146.007 127.524 147.092 128.208 148.324 128.469C149.59 128.702 150.971 128.509 152.468 127.891C153.964 127.273 155.489 126.303 157.043 124.981C158.045 124.129 158.881 123.328 159.553 122.578C160.23 121.765 160.774 121.004 161.185 120.297C161.602 119.527 161.868 118.824 161.984 118.19C162.135 117.526 162.121 116.913 161.942 116.351C161.797 115.76 161.505 115.205 161.066 114.686C160.275 113.752 159.319 113.255 158.2 113.196C157.114 113.107 155.861 113.31 154.439 113.806C153.051 114.272 151.555 114.89 149.949 115.66C148.344 116.43 146.705 117.23 145.03 118.059C143.327 118.853 141.599 119.549 139.847 120.146C138.066 120.709 136.335 121.05 134.655 121.17C132.974 121.291 131.325 121.027 129.707 120.38C128.089 119.732 126.577 118.578 125.171 116.918C123.676 115.154 122.75 113.323 122.391 111.427C122.066 109.501 122.226 107.55 122.869 105.574C123.513 103.599 124.554 101.672 125.993 99.7931C127.402 97.8801 129.143 96.0425 131.215 94.2802C133.148 92.6354 135.154 91.2863 137.233 90.2328C139.282 89.1448 141.328 88.4751 143.373 88.2237C145.418 87.9724 147.36 88.1955 149.198 88.8932C151.071 89.5615 152.77 90.795 154.294 92.5937L154.821 93.2163L147.31 99.6045L146.959 99.1895C146.168 98.2555 145.217 97.6949 144.108 97.5076C142.999 97.3203 141.782 97.4623 140.459 97.9336C139.135 98.4049 137.8 99.2132 136.453 100.359C135.003 101.592 133.877 102.788 133.075 103.946C132.308 105.074 131.883 106.15 131.799 107.174C131.721 108.133 131.989 108.976 132.604 109.702C133.308 110.533 134.187 110.975 135.243 111.029C136.304 111.019 137.528 110.781 138.916 110.315C140.309 109.785 141.793 109.118 143.369 108.313C144.945 107.508 146.585 106.709 148.288 105.914C149.992 105.12 151.72 104.424 153.471 103.827C155.223 103.23 156.954 102.888 158.664 102.803C160.344 102.682 161.979 102.929 163.568 103.542C165.156 104.154 166.624 105.256 167.972 106.848C170.287 109.58 171.492 112.335 171.586 115.111C171.68 117.888 170.91 120.626 169.276 123.325C167.641 126.025 165.356 128.623 162.421 131.119Z" fill="white"/>
<path d="M121.664 195.005L71.419 157.734L75.4999 152.21L125.745 189.481L121.664 195.005Z" fill="white"/>
<path d="M84.5009 237.764C82.5847 242.319 80.1179 245.902 77.1004 248.516C74.0829 251.129 70.5555 252.616 66.518 252.977C62.4806 253.339 57.9772 252.47 53.0077 250.37C47.9548 248.236 44.1688 245.603 41.6499 242.472C39.0892 239.323 37.7098 235.763 37.5118 231.792C37.2719 227.803 38.1102 223.531 40.0264 218.976C41.9778 214.338 44.4534 210.733 47.4533 208.162C50.429 205.531 53.9356 204.035 57.973 203.674C61.9687 203.295 66.493 204.173 71.546 206.307C76.5154 208.407 80.2805 211.031 82.8412 214.179C85.4019 217.328 86.8021 220.897 87.0419 224.886C87.2993 228.833 86.4523 233.126 84.5009 237.764ZM76.8588 234.536C77.7203 232.488 78.1839 230.568 78.2497 228.775C78.3155 226.982 77.9836 225.316 77.2538 223.777C76.524 222.239 75.4382 220.845 73.9963 219.596C72.5127 218.33 70.6851 217.238 68.5136 216.321L66.5717 215.5C64.3584 214.565 62.2814 214.008 60.3407 213.828C58.4 213.648 56.6462 213.842 55.0791 214.41C53.4703 214.961 52.0484 215.886 50.8133 217.185C49.5782 218.484 48.5299 220.157 47.6685 222.205C46.8246 224.21 46.3698 226.11 46.304 227.903C46.2382 229.696 46.5701 231.362 47.2999 232.9C47.9879 234.421 49.0738 235.815 50.5574 237.081C52.0586 238.306 53.9158 239.386 56.1291 240.321L58.071 241.141C60.2425 242.059 62.2898 242.628 64.213 242.85C66.1119 243.012 67.8658 242.818 69.4746 242.268C71.0834 241.717 72.5053 240.792 73.7404 239.493C74.9755 238.194 76.015 236.541 76.8588 234.536Z" fill="white"/>
<path d="M68.5082 283.994L23.3566 272.273L25.8926 262.464L71.0442 274.184L68.5082 283.994Z" fill="white"/>
<path d="M60.2095 342.028L13.8166 337.156L16.5893 310.645C16.8439 308.21 17.546 306.073 18.6956 304.234C19.8499 302.35 21.3426 300.934 23.1737 299.986C25.0048 299.039 27.0701 298.686 29.3694 298.928C31.218 299.122 32.8282 299.633 34.2002 300.461C35.5722 301.288 36.6703 302.338 37.4945 303.61C38.3234 304.836 38.8878 306.195 39.1878 307.685L39.4583 307.713C39.9982 306.038 40.8324 304.599 41.9611 303.395C43.0944 302.147 44.4901 301.222 46.1483 300.621C47.7661 299.971 49.6345 299.757 51.7535 299.979C54.5488 300.273 56.8249 301.173 58.5817 302.679C60.3433 304.14 61.5866 305.98 62.3118 308.199C63.0369 310.417 63.2628 312.834 62.9893 315.449L60.2095 342.028ZM53.0127 331.085L54.5335 316.544C54.708 314.876 54.3761 313.474 53.5377 312.337C52.7041 311.156 51.2954 310.461 49.3116 310.252C48.1394 310.129 47.1014 310.248 46.1976 310.609C45.2939 310.97 44.5694 311.578 44.0242 312.432C43.434 313.282 43.0658 314.405 42.9196 315.803L41.4483 329.87L53.0127 331.085ZM33.6035 329.047L35.004 315.656C35.1313 314.438 35.012 313.4 34.646 312.541C34.2397 311.632 33.6745 310.935 32.9505 310.449C32.1861 309.913 31.2854 309.59 30.2484 309.481C28.4901 309.297 27.1082 309.653 26.1028 310.55C25.102 311.402 24.5191 312.617 24.3541 314.195L22.9182 327.925L33.6035 329.047Z" fill="white"/>
</svg>
