<?xml version="1.0" encoding="UTF-8"?>
<svg id="Calque_1" data-name="Calque 1" xmlns="http://www.w3.org/2000/svg" viewBox="0 0 425.1 78.1">
  <defs>
    <style>
      .cls-1 {
        fill: #fff;
        stroke-width: 0px;
      }
    </style>
  </defs>
  <polygon class="cls-1" points="0 75.9 0 2.2 15.4 2.2 15.4 62.5 42.1 62.5 42.1 75.9 0 75.9"/>
  <rect class="cls-1" x="55.1" y="2.2" width="15.4" height="73.7"/>
  <g>
    <path class="cls-1" d="M85.1,39.1C85.1,15.1,97.9,0,118.3,0s27.7,10.5,30.1,27.6l-14.3,2.7c-1.8-10.6-7.6-16.9-15.9-16.9s-17.7,9.7-17.7,25.7,7.7,25.5,19.9,25.5,17.2-7.5,19-19.7l14.5,2.4c-2.4,18.9-15.4,30.8-33.6,30.8s-35.2-15-35.2-39"/>
    <path class="cls-1" d="M161.9,26.5c0-7.1,5.1-12.1,12.1-12.1s12.1,5.1,12.1,12.1-5.1,12-12.1,12-12.1-5.1-12.1-12M180.7,26.5c0-3.9-2.8-6.8-6.7-6.8s-6.8,2.9-6.8,6.8,2.9,6.7,6.8,6.7,6.7-2.8,6.7-6.7M174.9,59.5l-1.9-1.3,31.2-44.3,2,1.3-31.4,44.3h.1ZM192.7,47.6c0-7.1,5.1-12.1,12.1-12.1s12.1,5.1,12.1,12.1-5.1,12-12.1,12-12.1-5.1-12.1-12M211.6,47.6c0-3.9-2.8-6.8-6.7-6.8s-6.8,2.9-6.8,6.8,2.8,6.7,6.8,6.7,6.7-2.8,6.7-6.7"/>
    <path class="cls-1" d="M264.5,67.1l-3.2-12.6c-1.1-4.4-4.1-7.5-8.1-7.5h-9.2v28.9h-15.4V2.2h30.1c16.4,0,26.7,8.8,26.7,22.7s-5.8,17-15.8,19.4h0c3.8,1.8,5.7,5,6.7,9.2l2.4,9.7c.5,2.4,1.5,3.9,3.4,3.9s3-1,4.5-3l3.8,7.6c-3.3,3.7-8.3,5.9-13.4,5.9s-11.1-4.2-12.6-10.6M244,36h13.5c7.6,0,12.5-4.2,12.5-10.9s-5-11.1-12.5-11.1h-13.5v22Z"/>
    <polygon class="cls-1" points="302.4 75.9 302.4 2.2 321.4 2.2 347.7 57.4 347.9 57.4 347.9 2.2 362.4 2.2 362.4 75.9 343.3 75.9 317 20.9 316.8 20.9 316.8 75.9 302.4 75.9"/>
    <polygon class="cls-1" points="379.3 75.9 379.3 2.2 424.1 2.2 424.1 14.8 394.3 14.8 394.3 32.5 420 32.5 420 43.6 394.3 43.6 394.3 63.3 425.1 63.3 425.1 75.9 379.3 75.9"/>
  </g>
</svg>