<svg width="62" height="2339" viewBox="0 0 62 2339" fill="none" xmlns="http://www.w3.org/2000/svg">
<path d="M0 0C0 72.0411 62 95.0303 62 167.071C62 239.113 0 262.102 0 334.143C0 406.184 62 429.173 62 501.214C62 573.255 0 596.245 0 668.286C0 740.327 62 763.316 62 835.357C62 907.398 0 930.387 0 1002.43C0 1074.47 62 1097.46 62 1169.5C62 1241.54 0 1264.53 0 1336.57C0 1408.61 62 1431.6 62 1503.64C62 1575.68 0 1598.67 0 1670.71C0 1742.76 62 1765.74 62 1837.79C62 1909.83 0 1932.82 0 2004.86C0 2076.9 62 2099.89 62 2171.93C62 2243.97 0 2266.96 0 2339V0Z" fill="#C7133B"/>
</svg>
