<svg width="38" height="114" viewBox="0 0 38 114" fill="none" xmlns="http://www.w3.org/2000/svg">
<path d="M18.9117 113.076C31.3399 113.076 34.7445 111.267 34.7445 111.267C36.9608 110.29 36.8108 106.378 36.8108 106.378V60.403C36.8108 60.403 37.3339 55.2682 31.6603 50.8961C31.6603 50.8961 30.0685 49.3789 29.815 46.8851C29.5615 44.3914 27.9981 32.1022 24.0399 18.1323C24.0399 18.1323 23.9061 17.3899 24.0906 17.3051C24.2751 17.2204 24.8551 17.1942 25.0416 16.5626C25.2282 15.9311 24.8713 12.8321 23.6465 8.14724C23.6465 8.14724 23.385 7.61258 23.6465 7.57021C24.0703 7.50363 24.3988 6.34956 23.3931 6.2043H23.022C23.022 6.2043 25.3884 5.99245 23.022 4.84443C23.5654 3.4301 23.8696 2.55648 23.681 1.86444C23.681 1.86444 23.4843 1.23697 22.588 1.23697H15.2455C14.3513 1.23697 14.1525 1.86444 14.1525 1.86444C13.964 2.55648 14.2681 3.4301 14.8116 4.84443C12.4452 5.99043 14.8116 6.2043 14.8116 6.2043H14.4405C13.4347 6.34956 13.7632 7.50363 14.187 7.57021C14.4486 7.61258 14.187 8.14724 14.187 8.14724C12.9623 12.8321 12.6074 15.9311 12.7919 16.5626C12.9764 17.1942 13.5564 17.2184 13.7429 17.3051C13.9295 17.3919 13.7936 18.1323 13.7936 18.1323C9.83341 32.1022 8.27204 44.3914 8.01857 46.8851C7.76509 49.3789 6.1733 50.8961 6.1733 50.8961C0.489482 55.2682 1.01265 60.401 1.01265 60.401V106.376C1.01265 106.376 0.860563 110.288 3.07894 111.265C3.07894 111.265 6.48355 113.074 18.9117 113.074V113.076Z" fill="white" stroke="#172E27" stroke-width="1.5" stroke-miterlimit="10"/>
<path d="M6.6678 62.6123C17.0824 63.2963 27.1604 63.3507 36.8206 62.6123L36.8085 103.666C26.4283 104.897 16.3585 104.984 6.66577 103.666V62.6123H6.6678Z" fill="white" stroke="#172E27" stroke-width="1.5" stroke-miterlimit="10"/>
</svg>
